<svg width="707" color="white" height="400" viewBox="0 0 707 400" fill="none" xmlns="http://www.w3.org/2000/svg">
<path id="Maulik Chopra" d="M155.077 171V86.4L124.477 148H106.477L75.8766 86.4V171H43.0766V29H78.6766L115.477 103.2L152.477 29H187.877V171H155.077ZM204.58 139.6C204.58 132.667 206.513 126.6 210.38 121.4C214.246 116.2 219.58 112.133 226.38 109.2C233.18 106.133 240.98 104.6 249.78 104.6C254.046 104.6 258.246 105 262.38 105.8C266.513 106.467 270.113 107.467 273.18 108.8V104.2C273.18 98.4667 271.446 94.0667 267.98 91C264.513 87.9333 259.246 86.4 252.18 86.4C246.313 86.4 240.78 87.4 235.58 89.4C230.513 91.4 225.113 94.2667 219.38 98L209.78 77.6C216.713 73.0667 223.913 69.6667 231.38 67.4C238.98 65.1333 246.98 64 255.38 64C271.113 64 283.313 67.8 291.98 75.4C300.78 82.8667 305.18 93.7333 305.18 108V135.4C305.18 138.6 305.646 140.867 306.58 142.2C307.646 143.4 309.446 144.133 311.98 144.4V171C309.313 171.533 306.78 171.933 304.38 172.2C302.113 172.467 300.113 172.6 298.38 172.6C292.38 172.6 287.78 171.4 284.58 169C281.513 166.6 279.58 163.333 278.78 159.2L278.18 154.6C273.513 160.6 267.913 165.2 261.38 168.4C254.98 171.467 248.246 173 241.18 173C234.246 173 227.98 171.533 222.38 168.6C216.913 165.667 212.58 161.667 209.38 156.6C206.18 151.533 204.58 145.867 204.58 139.6ZM268.18 143.6C269.646 142.4 270.846 141.067 271.78 139.6C272.713 138.133 273.18 136.733 273.18 135.4V126C270.513 124.933 267.513 124.133 264.18 123.6C260.98 122.933 257.98 122.6 255.18 122.6C249.313 122.6 244.446 123.933 240.58 126.6C236.713 129.133 234.78 132.533 234.78 136.8C234.78 139.2 235.446 141.4 236.78 143.4C238.113 145.4 239.913 147 242.18 148.2C244.58 149.4 247.38 150 250.58 150C253.78 150 256.98 149.4 260.18 148.2C263.38 147 266.046 145.467 268.18 143.6ZM327.367 133.2V66H359.367V126.2C359.367 132.6 360.634 137.533 363.167 141C365.701 144.333 369.301 146 373.967 146C376.901 146 379.701 145.533 382.367 144.6C385.034 143.533 387.634 141.867 390.167 139.6C392.701 137.333 394.967 134.4 396.967 130.8V66H428.967V135.4C428.967 138.6 429.434 140.867 430.367 142.2C431.434 143.4 433.234 144.133 435.767 144.4V171C432.834 171.533 430.234 171.933 427.967 172.2C425.834 172.467 423.901 172.6 422.167 172.6C416.567 172.6 412.101 171.467 408.767 169.2C405.434 166.8 403.367 163.467 402.567 159.2L401.967 152.8C397.167 159.733 391.167 164.867 383.967 168.2C376.901 171.4 368.967 173 360.167 173C349.501 173 341.367 169.6 335.767 162.8C330.167 156 327.367 146.133 327.367 133.2ZM453.358 25H485.358V133.6C485.358 138 486.158 141.133 487.758 143C489.358 144.867 491.624 145.8 494.558 145.8C496.558 145.8 498.558 145.533 500.558 145C502.691 144.333 504.558 143.6 506.158 142.8L510.358 166.8C506.358 168.667 501.758 170.133 496.558 171.2C491.358 172.267 486.491 172.8 481.958 172.8C472.891 172.8 465.824 170.4 460.758 165.6C455.824 160.667 453.358 153.733 453.358 144.8V25ZM520.75 171V66H552.75V171H520.75ZM520.75 54V25H552.75V54H520.75ZM645.256 171L617.856 129L606.656 140.4V171H574.656V25H606.656V109.4L642.256 66H676.056L638.256 111.2L679.256 171H645.256ZM5.57969 298.8C5.57969 290.133 7.17969 281.667 10.3797 273.4C13.5797 265 18.2464 257.4 24.3797 250.6C30.513 243.8 37.9797 238.4 46.7797 234.4C55.5797 230.267 65.5797 228.2 76.7797 228.2C90.113 228.2 101.646 231.067 111.38 236.8C121.246 242.533 128.58 250 133.38 259.2L108.18 276.8C106.046 271.733 103.18 267.8 99.5797 265C96.113 262.2 92.2464 260.267 87.9797 259.2C83.8464 258 79.8464 257.4 75.9797 257.4C69.713 257.4 64.2464 258.667 59.5797 261.2C54.913 263.6 51.0464 266.867 47.9797 271C44.913 275.133 42.6464 279.733 41.1797 284.8C39.713 289.867 38.9797 294.933 38.9797 300C38.9797 305.6 39.8464 311 41.5797 316.2C43.313 321.4 45.7797 326 48.9797 330C52.313 334 56.313 337.2 60.9797 339.6C65.6464 341.867 70.7797 343 76.3797 343C80.3797 343 84.4464 342.333 88.5797 341C92.713 339.667 96.513 337.6 99.9797 334.8C103.58 331.867 106.313 328.067 108.18 323.4L134.98 339.2C132.18 346.133 127.58 352.067 121.18 357C114.78 361.933 107.513 365.733 99.3797 368.4C91.3797 370.933 83.4464 372.2 75.5797 372.2C65.313 372.2 55.8464 370.133 47.1797 366C38.6464 361.733 31.2464 356.133 24.9797 349.2C18.8464 342.133 14.0464 334.267 10.5797 325.6C7.24635 316.8 5.57969 307.867 5.57969 298.8ZM250.075 371H218.075V312C218.075 305.2 216.675 300.2 213.875 297C211.208 293.8 207.608 292.2 203.075 292.2C200.675 292.2 197.942 293 194.875 294.6C191.942 296.067 189.208 298.2 186.675 301C184.142 303.8 182.208 307.067 180.875 310.8V371H148.875V225H180.875V283.6C184.742 277.333 189.808 272.533 196.075 269.2C202.475 265.733 209.475 264 217.075 264C224.275 264 230.008 265.2 234.275 267.6C238.675 270 242.008 273.2 244.275 277.2C246.542 281.067 248.075 285.333 248.875 290C249.675 294.667 250.075 299.267 250.075 303.8V371ZM321.336 373C312.403 373 304.403 371.533 297.336 368.6C290.403 365.667 284.536 361.667 279.736 356.6C274.936 351.533 271.269 345.733 268.736 339.2C266.336 332.667 265.136 325.8 265.136 318.6C265.136 311.267 266.336 304.333 268.736 297.8C271.269 291.267 274.936 285.467 279.736 280.4C284.536 275.333 290.403 271.333 297.336 268.4C304.403 265.467 312.403 264 321.336 264C330.269 264 338.203 265.467 345.136 268.4C352.069 271.333 357.936 275.333 362.736 280.4C367.536 285.467 371.203 291.267 373.736 297.8C376.269 304.333 377.536 311.267 377.536 318.6C377.536 325.8 376.269 332.667 373.736 339.2C371.203 345.733 367.536 351.533 362.736 356.6C357.936 361.667 352.069 365.667 345.136 368.6C338.203 371.533 330.269 373 321.336 373ZM297.936 318.6C297.936 324.067 298.936 328.867 300.936 333C303.069 337.133 305.869 340.333 309.336 342.6C312.803 344.867 316.803 346 321.336 346C325.736 346 329.669 344.867 333.136 342.6C336.736 340.2 339.536 336.933 341.536 332.8C343.536 328.667 344.536 323.933 344.536 318.6C344.536 313.133 343.536 308.333 341.536 304.2C339.536 300.067 336.736 296.867 333.136 294.6C329.669 292.333 325.736 291.2 321.336 291.2C316.803 291.2 312.803 292.333 309.336 294.6C305.869 296.867 303.069 300.067 300.936 304.2C298.936 308.333 297.936 313.133 297.936 318.6ZM459.806 373C451.94 373 445.073 371.333 439.206 368C433.34 364.533 428.74 359.867 425.406 354V413.6H393.406V266H421.206V283C425.073 277 429.94 272.333 435.806 269C441.673 265.667 448.54 264 456.406 264C463.473 264 469.94 265.4 475.806 268.2C481.806 271 487.006 274.867 491.406 279.8C495.806 284.733 499.206 290.467 501.606 297C504.006 303.533 505.206 310.6 505.206 318.2C505.206 328.6 503.273 337.933 499.406 346.2C495.54 354.467 490.14 361 483.206 365.8C476.406 370.6 468.606 373 459.806 373ZM449.006 346C452.473 346 455.606 345.267 458.406 343.8C461.34 342.2 463.873 340.133 466.006 337.6C468.14 335.067 469.74 332.133 470.806 328.8C472.006 325.333 472.606 321.733 472.606 318C472.606 314.133 471.94 310.6 470.606 307.4C469.406 304.2 467.673 301.4 465.406 299C463.14 296.467 460.473 294.533 457.406 293.2C454.34 291.867 451.006 291.2 447.406 291.2C445.273 291.2 443.073 291.533 440.806 292.2C438.673 292.867 436.606 293.867 434.606 295.2C432.74 296.4 431.006 297.867 429.406 299.6C427.806 301.333 426.473 303.333 425.406 305.6V327.2C426.873 330.8 428.806 334 431.206 336.8C433.606 339.6 436.34 341.867 439.406 343.6C442.473 345.2 445.673 346 449.006 346ZM587.936 293.4C580.203 293.4 573.203 294.667 566.936 297.2C560.669 299.6 556.136 303.2 553.336 308V371H521.336V266H550.736V287.2C554.336 280.133 559.003 274.6 564.736 270.6C570.469 266.6 576.469 264.533 582.736 264.4C584.203 264.4 585.269 264.4 585.936 264.4C586.736 264.4 587.403 264.467 587.936 264.6V293.4ZM594.033 339.6C594.033 332.667 595.966 326.6 599.833 321.4C603.699 316.2 609.033 312.133 615.833 309.2C622.633 306.133 630.433 304.6 639.233 304.6C643.499 304.6 647.699 305 651.833 305.8C655.966 306.467 659.566 307.467 662.633 308.8V304.2C662.633 298.467 660.899 294.067 657.433 291C653.966 287.933 648.699 286.4 641.633 286.4C635.766 286.4 630.233 287.4 625.033 289.4C619.966 291.4 614.566 294.267 608.833 298L599.233 277.6C606.166 273.067 613.366 269.667 620.833 267.4C628.433 265.133 636.433 264 644.833 264C660.566 264 672.766 267.8 681.433 275.4C690.233 282.867 694.633 293.733 694.633 308V335.4C694.633 338.6 695.099 340.867 696.033 342.2C697.099 343.4 698.899 344.133 701.433 344.4V371C698.766 371.533 696.233 371.933 693.833 372.2C691.566 372.467 689.566 372.6 687.833 372.6C681.833 372.6 677.233 371.4 674.033 369C670.966 366.6 669.033 363.333 668.233 359.2L667.633 354.6C662.966 360.6 657.366 365.2 650.833 368.4C644.433 371.467 637.699 373 630.633 373C623.699 373 617.433 371.533 611.833 368.6C606.366 365.667 602.033 361.667 598.833 356.6C595.633 351.533 594.033 345.867 594.033 339.6ZM657.633 343.6C659.099 342.4 660.299 341.067 661.233 339.6C662.166 338.133 662.633 336.733 662.633 335.4V326C659.966 324.933 656.966 324.133 653.633 323.6C650.433 322.933 647.433 322.6 644.633 322.6C638.766 322.6 633.899 323.933 630.033 326.6C626.166 329.133 624.233 332.533 624.233 336.8C624.233 339.2 624.899 341.4 626.233 343.4C627.566 345.4 629.366 347 631.633 348.2C634.033 349.4 636.833 350 640.033 350C643.233 350 646.433 349.4 649.633 348.2C652.833 347 655.499 345.467 657.633 343.6Z" fill="white"/>
</svg>
